<?xml version="1.0" encoding="utf-8"?>
<!-- Generator: Adobe Illustrator 23.0.4, SVG Export Plug-In . SVG Version: 6.00 Build 0)  -->
<svg version="1.1" id="Layer_1" xmlns="http://www.w3.org/2000/svg" xmlns:xlink="http://www.w3.org/1999/xlink" x="0px" y="0px"
	 viewBox="0 0 900 629" style="enable-background:new 0 0 900 629;" xml:space="preserve">
<style type="text/css">
	.st0{opacity:0.75;}
	.st1{fill:#EAEAD0;}
	.st2{fill:#1E1E1E;}
	.st3{fill:#93BC24;}
	.st4{fill:#3EE1E5;}
	.st5{fill:#602DB2;}
	.st6{fill:#32CCAE;}
</style>
<g>
	<g class="st0">
		<polygon class="st1" points="744.8,442.3 744.8,401.6 780.1,381.2 815.3,401.6 815.3,442.3 780.1,462.6 		"/>
		<path class="st2" d="M780.1,381.5l35,20.2v40.4l-35,20.2l-35-20.2v-40.4L780.1,381.5 M780.1,380.9l-35.5,20.5v41l35.5,20.5
			l35.5-20.5v-41L780.1,380.9L780.1,380.9z"/>
	</g>
	<g class="st0">
		<polygon class="st1" points="673.9,442.3 673.9,401.6 709.2,381.2 744.4,401.6 744.4,442.3 709.2,462.6 		"/>
		<path class="st2" d="M709.2,381.5l35,20.2v40.4l-35,20.2l-35-20.2v-40.4L709.2,381.5 M709.2,380.9l-35.5,20.5v41l35.5,20.5
			l35.5-20.5v-41L709.2,380.9L709.2,380.9z"/>
	</g>
	<g class="st0">
		<polygon class="st1" points="638.5,503.7 638.5,463 673.7,442.7 709,463 709,503.7 673.7,524.1 		"/>
		<path class="st2" d="M673.7,443l35,20.2v40.4l-35,20.2l-35-20.2v-40.4L673.7,443 M673.7,442.4l-35.5,20.5v41l35.5,20.5l35.5-20.5
			v-41L673.7,442.4L673.7,442.4z"/>
	</g>
</g>
<g id="NL">
	<g class="st0">
		<polygon class="st3" points="673.9,319.3 673.9,278.6 709.2,258.2 744.4,278.6 744.4,319.3 709.2,339.6 		"/>
		<path class="st2" d="M709.2,258.5l35,20.2v40.4l-35,20.2l-35-20.2v-40.4L709.2,258.5 M709.2,257.9l-35.5,20.5v41l35.5,20.5
			l35.5-20.5v-41L709.2,257.9L709.2,257.9z"/>
	</g>
	<g class="st0">
		<polygon class="st3" points="603,319.3 603,278.6 638.2,258.2 673.5,278.6 673.5,319.3 638.2,339.6 		"/>
		<path class="st2" d="M638.2,258.5l35,20.2v40.4l-35,20.2l-35-20.2v-40.4L638.2,258.5 M638.2,257.9l-35.5,20.5v41l35.5,20.5
			l35.5-20.5v-41L638.2,257.9L638.2,257.9z"/>
	</g>
</g>
<g id="QC" class="st0">
	<g class="st0">
		<polygon class="st4" points="603,442.3 603,401.6 638.2,381.2 673.5,401.6 673.5,442.3 638.2,462.6 		"/>
		<path class="st2" d="M638.2,381.5l35,20.2v40.4l-35,20.2l-35-20.2v-40.4L638.2,381.5 M638.2,380.9l-35.5,20.5v41l35.5,20.5
			l35.5-20.5v-41L638.2,380.9L638.2,380.9z"/>
	</g>
	<g class="st0">
		<polygon class="st4" points="638.5,380.8 638.5,340.1 673.7,319.7 709,340.1 709,380.8 673.7,401.1 		"/>
		<path class="st2" d="M673.7,320l35,20.2v40.4l-35,20.2l-35-20.2v-40.4L673.7,320 M673.7,319.4l-35.5,20.5v41l35.5,20.5l35.5-20.5
			v-41L673.7,319.4L673.7,319.4z"/>
	</g>
	<g class="st0">
		<polygon class="st4" points="567.5,380.8 567.5,340.1 602.8,319.7 638,340.1 638,380.8 602.8,401.1 		"/>
		<path class="st2" d="M602.8,320l35,20.2v40.4l-35,20.2l-35-20.2v-40.4L602.8,320 M602.8,319.4l-35.5,20.5v41l35.5,20.5l35.5-20.5
			v-41L602.8,319.4L602.8,319.4z"/>
	</g>
	<g class="st0">
		<polygon class="st4" points="532.1,319.3 532.1,278.6 567.3,258.2 602.6,278.6 602.6,319.3 567.3,339.6 		"/>
		<path class="st2" d="M567.3,258.5l35,20.2v40.4l-35,20.2l-35-20.2v-40.4L567.3,258.5 M567.3,257.9l-35.5,20.5v41l35.5,20.5
			l35.5-20.5v-41L567.3,257.9L567.3,257.9z"/>
	</g>
</g>
<g id="ON">
	<g class="st0">
		<polygon class="st5" points="532.1,565.2 532.1,524.5 567.3,504.2 602.6,524.5 602.6,565.2 567.3,585.6 		"/>
		<g>
			<path class="st2" d="M567.3,504.5l35,20.2v40.4l-35,20.2l-35-20.2v-40.4L567.3,504.5 M567.3,503.9l-35.5,20.5v41l35.5,20.5
				l35.5-20.5v-41L567.3,503.9L567.3,503.9z"/>
		</g>
	</g>
	<g class="st0">
		<polygon class="st5" points="567.5,503.7 567.5,463 602.8,442.7 638,463 638,503.7 602.8,524.1 		"/>
		<g>
			<path class="st2" d="M602.8,443l35,20.2v40.4l-35,20.2l-35-20.2v-40.4L602.8,443 M602.8,442.4l-35.5,20.5v41l35.5,20.5l35.5-20.5
				v-41L602.8,442.4L602.8,442.4z"/>
		</g>
	</g>
	<g class="st0">
		<polygon class="st5" points="532.1,442.3 532.1,401.6 567.3,381.2 602.6,401.6 602.6,442.3 567.3,462.6 		"/>
		<g>
			<path class="st2" d="M567.3,381.5l35,20.2v40.4l-35,20.2l-35-20.2v-40.4L567.3,381.5 M567.3,380.9l-35.5,20.5v41l35.5,20.5
				l35.5-20.5v-41L567.3,380.9L567.3,380.9z"/>
		</g>
	</g>
	<g class="st0">
		<polygon class="st5" points="496.6,503.7 496.6,463 531.9,442.7 567.1,463 567.1,503.7 531.9,524.1 		"/>
		<g>
			<path class="st2" d="M531.9,443l35,20.2v40.4l-35,20.2l-35-20.2v-40.4L531.9,443 M531.9,442.4l-35.5,20.5v41l35.5,20.5l35.5-20.5
				v-41L531.9,442.4L531.9,442.4z"/>
		</g>
	</g>
	<g class="st0">
		<polygon class="st5" points="461.2,442.3 461.2,401.6 496.4,381.2 531.7,401.6 531.7,442.3 496.4,462.6 		"/>
		<g>
			<path class="st2" d="M496.4,381.5l35,20.2v40.4l-35,20.2l-35-20.2v-40.4L496.4,381.5 M496.4,380.9l-35.5,20.5v41l35.5,20.5
				l35.5-20.5v-41L496.4,380.9L496.4,380.9z"/>
		</g>
	</g>
</g>
<g id="MB" class="st0">
	<g class="st0">
		<polygon class="st4" points="425.7,503.7 425.7,463 461,442.7 496.2,463 496.2,503.7 461,524.1 		"/>
		<path class="st2" d="M461,443l35,20.2v40.4l-35,20.2l-35-20.2v-40.4L461,443 M461,442.4l-35.5,20.5v41l35.5,20.5l35.5-20.5v-41
			L461,442.4L461,442.4z"/>
	</g>
	<g class="st0">
		<polygon class="st4" points="390.2,442.3 390.2,401.6 425.5,381.2 460.7,401.6 460.7,442.3 425.5,462.6 		"/>
		<path class="st2" d="M425.5,381.5l35,20.2v40.4l-35,20.2l-35-20.2v-40.4L425.5,381.5 M425.5,380.9L390,401.4v41l35.5,20.5
			l35.5-20.5v-41L425.5,380.9L425.5,380.9z"/>
	</g>
	<g class="st0">
		<polygon class="st4" points="425.7,380.8 425.7,340.1 461,319.7 496.2,340.1 496.2,380.8 461,401.1 		"/>
		<path class="st2" d="M461,320l35,20.2v40.4l-35,20.2l-35-20.2v-40.4L461,320 M461,319.4l-35.5,20.5v41l35.5,20.5l35.5-20.5v-41
			L461,319.4L461,319.4z"/>
	</g>
	<g class="st0">
		<polygon class="st4" points="354.8,503.7 354.8,463 390,442.7 425.3,463 425.3,503.7 390,524.1 		"/>
		<path class="st2" d="M390,443l35,20.2v40.4l-35,20.2l-35-20.2v-40.4L390,443 M390,442.4l-35.5,20.5v41l35.5,20.5l35.5-20.5v-41
			L390,442.4L390,442.4z"/>
	</g>
</g>
<g id="NU" class="st0">
	<g class="st0">
		<polygon class="st4" points="390.2,319.3 390.2,278.6 425.5,258.2 460.7,278.6 460.7,319.3 425.5,339.6 		"/>
		<path class="st2" d="M425.5,258.5l35,20.2v40.4l-35,20.2l-35-20.2v-40.4L425.5,258.5 M425.5,257.9L390,278.4v41l35.5,20.5
			l35.5-20.5v-41L425.5,257.9L425.5,257.9z"/>
	</g>
	<g class="st0">
		<polygon class="st4" points="319.3,319.3 319.3,278.6 354.6,258.2 389.8,278.6 389.8,319.3 354.6,339.6 		"/>
		<path class="st2" d="M354.6,258.5l35,20.2v40.4l-35,20.2l-35-20.2v-40.4L354.6,258.5 M354.6,257.9l-35.5,20.5v41l35.5,20.5
			l35.5-20.5v-41L354.6,257.9L354.6,257.9z"/>
	</g>
	<g class="st0">
		<polygon class="st4" points="354.8,257.8 354.8,217.1 390,196.7 425.3,217.1 425.3,257.8 390,278.1 		"/>
		<path class="st2" d="M390,197l35,20.2v40.4l-35,20.2l-35-20.2v-40.4L390,197 M390,196.4l-35.5,20.5v41l35.5,20.5l35.5-20.5v-41
			L390,196.4L390,196.4z"/>
	</g>
	<g class="st0">
		<polygon class="st4" points="319.3,196.3 319.3,155.6 354.6,135.2 389.8,155.6 389.8,196.3 354.6,216.7 		"/>
		<path class="st2" d="M354.6,135.5l35,20.2v40.4l-35,20.2l-35-20.2v-40.4L354.6,135.5 M354.6,135l-35.5,20.5v41l35.5,20.5
			l35.5-20.5v-41L354.6,135L354.6,135z"/>
	</g>
</g>
<g id="SK" class="st0">
	<g class="st0">
		<polygon class="st6" points="319.3,442.3 319.3,401.6 354.6,381.2 389.8,401.6 389.8,442.3 354.6,462.6 		"/>
		<path class="st2" d="M354.6,381.5l35,20.2v40.4l-35,20.2l-35-20.2v-40.4L354.6,381.5 M354.6,380.9l-35.5,20.5v41l35.5,20.5
			l35.5-20.5v-41L354.6,380.9L354.6,380.9z"/>
	</g>
	<g class="st0">
		<polygon class="st6" points="354.8,380.8 354.8,340.1 390,319.7 425.3,340.1 425.3,380.8 390,401.1 		"/>
		<path class="st2" d="M390,320l35,20.2v40.4l-35,20.2l-35-20.2v-40.4L390,320 M390,319.4l-35.5,20.5v41l35.5,20.5l35.5-20.5v-41
			L390,319.4L390,319.4z"/>
	</g>
	<g class="st0">
		<polygon class="st6" points="283.9,503.7 283.9,463 319.1,442.7 354.4,463 354.4,503.7 319.1,524.1 		"/>
		<path class="st2" d="M319.1,443l35,20.2v40.4l-35,20.2l-35-20.2v-40.4L319.1,443 M319.1,442.4l-35.5,20.5v41l35.5,20.5l35.5-20.5
			v-41L319.1,442.4L319.1,442.4z"/>
	</g>
	<g class="st0">
		<polygon class="st6" points="283.9,380.8 283.9,340.1 319.1,319.7 354.4,340.1 354.4,380.8 319.1,401.1 		"/>
		<path class="st2" d="M319.1,320l35,20.2v40.4l-35,20.2l-35-20.2v-40.4L319.1,320 M319.1,319.4l-35.5,20.5v41l35.5,20.5l35.5-20.5
			v-41L319.1,319.4L319.1,319.4z"/>
	</g>
</g>
<g id="AB">
	<g class="st0">
		<polygon class="st6" points="248.4,442.3 248.4,401.6 283.7,381.2 318.9,401.6 318.9,442.3 283.7,462.6 		"/>
		<path class="st2" d="M283.7,381.5l35,20.2v40.4l-35,20.2l-35-20.2v-40.4L283.7,381.5 M283.7,380.9l-35.5,20.5v41l35.5,20.5
			l35.5-20.5v-41L283.7,380.9L283.7,380.9z"/>
	</g>
	<g class="st0">
		<polygon class="st6" points="213,380.8 213,340.1 248.2,319.7 283.5,340.1 283.5,380.8 248.2,401.1 		"/>
		<path class="st2" d="M248.2,320l35,20.2v40.4l-35,20.2l-35-20.2v-40.4L248.2,320 M248.2,319.4l-35.5,20.5v41l35.5,20.5l35.5-20.5
			v-41L248.2,319.4L248.2,319.4z"/>
	</g>
</g>
<g id="NT" class="st0">
	<g class="st0">
		<polygon class="st4" points="248.4,319.3 248.4,278.6 283.7,258.2 318.9,278.6 318.9,319.3 283.7,339.6 		"/>
		<path class="st2" d="M283.7,258.5l35,20.2v40.4l-35,20.2l-35-20.2v-40.4L283.7,258.5 M283.7,257.9l-35.5,20.5v41l35.5,20.5
			l35.5-20.5v-41L283.7,257.9L283.7,257.9z"/>
	</g>
	<g class="st0">
		<polygon class="st4" points="283.9,257.8 283.9,217.1 319.1,196.7 354.4,217.1 354.4,257.8 319.1,278.1 		"/>
		<path class="st2" d="M319.1,197l35,20.2v40.4l-35,20.2l-35-20.2v-40.4L319.1,197 M319.1,196.4l-35.5,20.5v41l35.5,20.5l35.5-20.5
			v-41L319.1,196.4L319.1,196.4z"/>
	</g>
	<g class="st0">
		<polygon class="st4" points="177.5,319.3 177.5,278.6 212.7,258.2 248,278.6 248,319.3 212.7,339.6 		"/>
		<path class="st2" d="M212.7,258.5l35,20.2v40.4l-35,20.2l-35-20.2v-40.4L212.7,258.5 M212.7,257.9l-35.5,20.5v41l35.5,20.5
			l35.5-20.5v-41L212.7,257.9L212.7,257.9z"/>
	</g>
	<g class="st0">
		<polygon class="st4" points="213,257.8 213,217.1 248.2,196.7 283.5,217.1 283.5,257.8 248.2,278.1 		"/>
		<path class="st2" d="M248.2,197l35,20.2v40.4l-35,20.2l-35-20.2v-40.4L248.2,197 M248.2,196.4l-35.5,20.5v41l35.5,20.5l35.5-20.5
			v-41L248.2,196.4L248.2,196.4z"/>
	</g>
	<g class="st0">
		<polygon class="st4" points="177.5,196.3 177.5,155.6 212.7,135.2 248,155.6 248,196.3 212.7,216.7 		"/>
		<path class="st2" d="M212.7,135.5l35,20.2v40.4l-35,20.2l-35-20.2v-40.4L212.7,135.5 M212.7,135l-35.5,20.5v41l35.5,20.5
			l35.5-20.5v-41L212.7,135L212.7,135z"/>
	</g>
</g>
<g id="BC">
	<g class="st0">
		<polygon class="st5" points="177.5,442.3 177.5,401.6 212.7,381.2 248,401.6 248,442.3 212.7,462.6 		"/>
		<path class="st2" d="M212.7,381.5l35,20.2v40.4l-35,20.2l-35-20.2v-40.4L212.7,381.5 M212.7,380.9l-35.5,20.5v41l35.5,20.5
			l35.5-20.5v-41L212.7,380.9L212.7,380.9z"/>
	</g>
	<g class="st0">
		<polygon class="st5" points="106.6,442.3 106.6,401.6 141.8,381.2 177.1,401.6 177.1,442.3 141.8,462.6 		"/>
		<path class="st2" d="M141.8,381.5l35,20.2v40.4l-35,20.2l-35-20.2v-40.4L141.8,381.5 M141.8,380.9l-35.5,20.5v41l35.5,20.5
			l35.5-20.5v-41L141.8,380.9L141.8,380.9z"/>
	</g>
	<g class="st0">
		<polygon class="st5" points="142,380.8 142,340.1 177.3,319.7 212.5,340.1 212.5,380.8 177.3,401.1 		"/>
		<path class="st2" d="M177.3,320l35,20.2v40.4l-35,20.2l-35-20.2v-40.4L177.3,320 M177.3,319.4l-35.5,20.5v41l35.5,20.5l35.5-20.5
			v-41L177.3,319.4L177.3,319.4z"/>
	</g>
	<g class="st0">
		<polygon class="st5" points="71.1,380.8 71.1,340.1 106.4,319.7 141.6,340.1 141.6,380.8 106.4,401.1 		"/>
		<path class="st2" d="M106.4,320l35,20.2v40.4l-35,20.2l-35-20.2v-40.4L106.4,320 M106.4,319.4l-35.5,20.5v41l35.5,20.5l35.5-20.5
			v-41L106.4,319.4L106.4,319.4z"/>
	</g>
</g>
<g id="YT">
	<g class="st0">
		<polygon class="st4" points="106.6,319.3 106.6,278.6 141.8,258.2 177.1,278.6 177.1,319.3 141.8,339.6 		"/>
		<path class="st2" d="M141.8,258.5l35,20.2v40.4l-35,20.2l-35-20.2v-40.4L141.8,258.5 M141.8,257.9l-35.5,20.5v41l35.5,20.5
			l35.5-20.5v-41L141.8,257.9L141.8,257.9z"/>
	</g>
	<g class="st0">
		<polygon class="st4" points="142,257.8 142,217.1 177.3,196.7 212.5,217.1 212.5,257.8 177.3,278.1 		"/>
		<path class="st2" d="M177.3,197l35,20.2v40.4l-35,20.2l-35-20.2v-40.4L177.3,197 M177.3,196.4l-35.5,20.5v41l35.5,20.5l35.5-20.5
			v-41L177.3,196.4L177.3,196.4z"/>
	</g>
	<g class="st0">
		<polygon class="st4" points="106.6,196.3 106.6,155.6 141.8,135.2 177.1,155.6 177.1,196.3 141.8,216.7 		"/>
		<path class="st2" d="M141.8,135.5l35,20.2v40.4l-35,20.2l-35-20.2v-40.4L141.8,135.5 M141.8,135l-35.5,20.5v41l35.5,20.5
			l35.5-20.5v-41L141.8,135L141.8,135z"/>
	</g>
	<g class="st0">
		<polygon class="st4" points="71.1,257.8 71.1,217.1 106.4,196.7 141.6,217.1 141.6,257.8 106.4,278.1 		"/>
		<path class="st2" d="M106.4,197l35,20.2v40.4l-35,20.2l-35-20.2v-40.4L106.4,197 M106.4,196.4l-35.5,20.5v41l35.5,20.5l35.5-20.5
			v-41L106.4,196.4L106.4,196.4z"/>
	</g>
</g>
</svg>
